<svg width="16" height="16" viewBox="0 0 16 16" fill="none" xmlns="http://www.w3.org/2000/svg">
<path fill-rule="evenodd" clip-rule="evenodd" d="M11.3547 10.4117C12.1759 9.38528 12.6669 8.08329 12.6669 6.66669C12.6669 3.35316 9.98039 0.666687 6.66687 0.666687C3.35335 0.666687 0.66687 3.35316 0.66687 6.66669C0.66687 9.98021 3.35335 12.6667 6.66687 12.6667C8.08347 12.6667 9.38547 12.1757 10.4119 11.3546L14.1955 15.1381C14.4558 15.3984 14.8779 15.3984 15.1383 15.1381C15.3986 14.8777 15.3986 14.4556 15.1383 14.1953L11.3547 10.4117ZM6.66687 2.00002C9.24401 2.00002 11.3335 4.08954 11.3335 6.66669C11.3335 9.24383 9.24401 11.3334 6.66687 11.3334C4.08973 11.3334 2.0002 9.24383 2.0002 6.66669C2.0002 4.08954 4.08973 2.00002 6.66687 2.00002Z" fill="#406A76"/>
</svg>
